/* XPM */
static const char * const EnvelopeAlpha[] = {
"27 27 2 1",
" 	c #000000",
".	c #FFFFFF",
"                           ",
"                           ",
"         .......           ",
"        .........          ",
"        .........          ",
"         .......           ",
"          .....            ",
"           ...             ",
"            .           .  ",
"                     ....  ",
"            ..    .......  ",
"           ............    ",
" ....................      ",
" .................         ",
" ...............           ",
"                           ",
"                           ",
"            .              ",
"           ...             ",
"          .....            ",
"         .......           ",
"        .........          ",
"        .........          ",
"         .......           ",
"                           ",
"                           ",
"                           "};
