/* XPM */
static const char * const Envelope[] = {
"27 27 3 1",
" 	c #FFFFFF",
".	c #1C1C1C",
"+	c #6A6DDE",
"                           ",
"                           ",
"         .......           ",
"        .       .          ",
"        .       .          ",
"         .     .           ",
"          .   .            ",
"           . .             ",
"            .           +  ",
"                     ++++  ",
"            ++    +++++++  ",
"           +  +++++++++    ",
" +++++++++++  +++++++      ",
" +++++++++++++++++         ",
" +++++++++++++++           ",
"                           ",
"                           ",
"            .              ",
"           . .             ",
"          .   .            ",
"         .     .           ",
"        .       .          ",
"        .       .          ",
"         .......           ",
"                           ",
"                           ",
"                           "};
