/* XPM */
static const char * const IBeam[] = {
"27 27 3 1",
" 	c #FFFFFF",
".	c #000000",
"+	c #3F3F3F",
"                           ",
"                           ",
"                           ",
"                           ",
"                           ",
"          .......+         ",
"             .+            ",
"             .+            ",
"             .+            ",
"             .+            ",
"             .+            ",
"             .+            ",
"             .+            ",
"             .+            ",
"             .+            ",
"             .+            ",
"             .+            ",
"             .+            ",
"             .+            ",
"             .+            ",
"          .......+         ",
"                           ",
"                           ",
"                           ",
"                           ",
"                           ",
"                           "};
