/* XPM */
static const char * const TimeShift[] = {
"27 27 3 1",
" 	c #FFFFFF",
".	c #000000",
"+	c #7F7F7F",
"                           ",
"                           ",
"                           ",
"                           ",
"                           ",
"                           ",
"                           ",
"                           ",
"                           ",
"                           ",
"        .+       .+        ",
"       ..+       ..+       ",
"      ..............+      ",
"     ................+     ",
"      ..............+      ",
"       ..+       ..+       ",
"        .+       .+        ",
"                           ",
"                           ",
"                           ",
"                           ",
"                           ",
"                           ",
"                           ",
"                           ",
"                           ",
"                           "};
