/* XPM */
static const char * const BottomFrequencyCursorXpm[] = {
"32 32 4 1",
" 	c #FF0000",
".	c #000000",
"+	c #D4D4D4",
"@	c #FFFFFF",
"                                ",
"                                ",
"                                ",
"                                ",
"                                ",
"                                ",
"                                ",
"                                ",
"                                ",
"                                ",
"                                ",
"                                ",
"                                ",
"                                ",
"                                ",
"                                ",
"                                ",
"                                ",
"            .........           ",
"           .+@@@@@@@+.          ",
"           .+@@@@@@@+.          ",
"            .+@@@@@+.           ",
"             .+@@@+.            ",
"              .+@+.             ",
"               .+.              ",
"                .               ",
"                                ",
"                                ",
"                                ",
"                                ",
"                                ",
"                                "};
