/* XPM */
static const char * const DisabledCursorXpm[] = {
"32 32 13 1",
" 	c #FF0000",
".	c #000000",
"+	c #848484",
"@	c #CECECE",
"#	c #F4F4F4",
"$	c #515151",
"%	c #FFFFFF",
"&	c #D4D4D4",
"*	c #6C6C6C",
"=	c #9D9D9D",
"-	c #A3A3A3",
";	c #ECECEC",
">	c #494949",
"                                ",
"                                ",
"                                ",
"                                ",
"                                ",
"                                ",
"                                ",
"                                ",
"             ......             ",
"           ..+@##@+..           ",
"          .$#%%%%%%#$.          ",
"         .$%%&...*%%%$.         ",
"         .#%=.  .*%%%#.         ",
"        .+%&.  .*%%%#%+.        ",
"        .&%.  .*%%%**%@.        ",
"        .#%. .*%%%*..%#.        ",
"        .#%..*%%%*. .%#.        ",
"        .#%**%%%*.  .%@.        ",
"        .@%%%%%*.  .&%+.        ",
"         .#%%%*.  .-%;.         ",
"         .$%%#*...&%%>.         ",
"          .$#%%%%%%;>.          ",
"           ..+@##@+..           ",
"             ......             ",
"                                ",
"                                ",
"                                ",
"                                ",
"                                ",
"                                ",
"                                ",
"                                "};
