/* XPM */
static const char * const DrawCursorXpm[] = {
"32 32 14 1",
" 	c #FF0000",
".	c #000000",
"+	c #ADADAD",
"@	c #414141",
"#	c #A3A3A3",
"$	c #FFFFFF",
"%	c #F4F4F4",
"&	c #515151",
"*	c #D4D4D4",
"=	c #CECECE",
"-	c #6C6C6C",
";	c #9D9D9D",
">	c #C4C4C4",
",	c #939393",
"                                ",
"                                ",
"                                ",
"                                ",
"                                ",
"                                ",
"                                ",
"                                ",
"                                ",
"                      ..        ",
"                     .+@.       ",
"                    .#$%@.      ",
"                   .&.*$+.      ",
"                  .=$-.;.       ",
"                 .=$$$&.        ",
"                .=$$$=.         ",
"               .=$$$=.          ",
"              .=$$$=.           ",
"             .=$$$=.            ",
"            .>$$$=.             ",
"            .$$$=.              ",
"           .,$$>.               ",
"           .=,..                ",
"           ...                  ",
"                                ",
"                                ",
"                                ",
"                                ",
"                                ",
"                                ",
"                                ",
"                                "};
