/* XPM */
static const char * const DrawToolSmoothingXpm[] = {
"32 32 6 1",
" 	c #FF0000",
".	c #000000",
"+	c #BEBEBE",
"@	c #E4E4E4",
"#	c #FFFFFF",
"$	c #909090",
"                                ",
"                                ",
"                                ",
"                                ",
"                                ",
"                                ",
"                                ",
"                                ",
"             .....              ",
"           ..+@#@+..            ",
"          .$#######$.           ",
"         .$#@.....@#$.          ",
"         .#@.     .@#.          ",
"        .+#.       .#+.         ",
"        .@#.       .#@.         ",
"        .##.       .##.         ",
"        .@#.       .#@.         ",
"        .+#.       .#+.         ",
"         .#@.     .@#.          ",
"         .$#@.....@#$.          ",
"          .$#######$.           ",
"           ..+@#@+..            ",
"             .....              ",
"                                ",
"                                ",
"                                ",
"                                ",
"                                ",
"                                ",
"                                ",
"                                ",
"                                "};
