/* XPM */
static const char * const IBeamCursorXpm[] = {
"32 32 5 1",
" 	c #FF0000",
".	c #000000",
"+	c #C9C9C9",
"@	c #FFFFFF",
"#	c #525252",
"                                ",
"                                ",
"                                ",
"                                ",
"                                ",
"                                ",
"                                ",
"            ..........          ",
"            .+@@@@@@+.          ",
"             ..#@@#..           ",
"               .@@.             ",
"               .@@.             ",
"               .@@.             ",
"               .@@.             ",
"               .@@.             ",
"               .@@.             ",
"               .@@.             ",
"               .@@.             ",
"               .@@.             ",
"               .@@.             ",
"               .@@.             ",
"               .@@.             ",
"             ..#@@#..           ",
"            .+@@@@@@+.          ",
"            ..........          ",
"                                ",
"                                ",
"                                ",
"                                ",
"                                ",
"                                ",
"                                "};
