/* XPM */
static const char * const LabelCursorRightXpm[] = {
"32 32 6 1",
" 	c #FF0000",
".	c #000000",
"+	c #909090",
"@	c #646464",
"#	c #FFFFFF",
"$	c #CDCDCD",
"                                ",
"                                ",
"                                ",
"                                ",
"                                ",
"                                ",
"                                ",
"                                ",
"                                ",
"                    ..          ",
"                   .+@.         ",
"                  .+#+.         ",
"                 .+##@.         ",
"                .+##+...        ",
"               .+##+.$#$.       ",
"               .##+.$###$.      ",
"               .##+.#####.      ",
"               .##+.$###$.      ",
"               .+##+.$#$.       ",
"                .+##+...        ",
"                 .+##@.         ",
"                  .+#+.         ",
"                   .+@.         ",
"                    ..          ",
"                                ",
"                                ",
"                                ",
"                                ",
"                                ",
"                                ",
"                                ",
"                                "};
