/* XPM */
static const char * const RearrangeCursorXpm[] = {
"32 32 4 1",
" 	c #FF0000",
".	c #000000",
"+	c #FFFFFF",
"@	c #BCBCBC",
"                                ",
"                                ",
"                                ",
"                                ",
"                                ",
"                                ",
"                .               ",
"               .+.              ",
"              .+++.             ",
"             .+++++.            ",
"              ..+..             ",
"               .+.              ",
"              .....             ",
"         .   .@+++@.   .        ",
"        .+. .@+@.@+@. .+.       ",
"       .++...+@. .@+...++.      ",
"      .+++++.+.   .+.+++++.     ",
"       .++...+@. .@+...++.      ",
"        .+. .@+@.@+@. .+.       ",
"         .   .@+++@.   .        ",
"              .....             ",
"               .+.              ",
"              ..+..             ",
"             .+++++.            ",
"              .+++.             ",
"               .+.              ",
"                .               ",
"                                ",
"                                ",
"                                ",
"                                ",
"                                "};
