/* XPM */
static const char * const SubViewsCursorXpm[] = {
"32 32 6 1",
" 	c #FF0000",
".	c #FFFFFF",
"+	c #565656",
"@	c #000000",
"#	c #2A2A2A",
"$	c #FCFCFC",
"                                ",
"                                ",
"                                ",
"                                ",
"                                ",
"                .               ",
"               .+.              ",
"              .+@+.             ",
"             .+@@@+.            ",
"            .+@@@@@+.           ",
"           .+#@@@@@#+.          ",
"           .+#@@@@@#+.          ",
"            .........           ",
"                                ",
"                                ",
"                                ",
"                                ",
"                                ",
"                                ",
"            .........           ",
"           .+#@@@@@#+.          ",
"           .+#@@@@@#+.          ",
"            .+@@@@@+.           ",
"             .+@@@+$            ",
"              .+@+.             ",
"               .+.              ",
"                .               ",
"                                ",
"                                ",
"                                ",
"                                ",
"                                "};
