/* XPM */
static const char * const TimeCursorXpm[] = {
"32 32 7 1",
" 	c #FF0000",
".	c #000000",
"+	c #D4D4D4",
"@	c #FFFFFF",
"#	c #050505",
"$	c #F5F5F5",
"%	c #040404",
"                                ",
"                                ",
"                                ",
"                                ",
"                                ",
"                                ",
"                                ",
"                                ",
"                                ",
"                                ",
"                                ",
"          ..         ..         ",
"         .+@.       .@+.        ",
"        .+@@.       .@@+.       ",
"       .+@@@........#@@@+.      ",
"      .+@@@@+++++++++@@@@+.     ",
"     .+$@@@@@@@@@@@@@@@@@@+.    ",
"      .+@@@@+++++++++@@@@+.     ",
"       .+@@@........%@@@+.      ",
"        .+@@.       .@@+.       ",
"         .+@.       .@+.        ",
"          ..         ..         ",
"                                ",
"                                ",
"                                ",
"                                ",
"                                ",
"                                ",
"                                ",
"                                ",
"                                ",
"                                "};
