/* XPM */
static const char * const TopFrequencyCursorXpm[] = {
"32 32 5 1",
" 	c #FF0000",
".	c #000000",
"+	c #D4D4D4",
"@	c #FFFFFF",
"#	c #FE0000",
"                                ",
"                                ",
"                                ",
"                                ",
"                                ",
"                                ",
"                .               ",
"               .+.              ",
"              .+@+.             ",
"             .+@@@+.            ",
"            .+@@@@@+.           ",
"           .+@@@@@@@+.          ",
"          #.+@@@@@@@+.#         ",
"            .........           ",
"                                ",
"                                ",
"                                ",
"                                ",
"                                ",
"                                ",
"                                ",
"                                ",
"                                ",
"                                ",
"                                ",
"                                ",
"                                ",
"                                ",
"                                ",
"                                ",
"                                ",
"                                "};
