/* XPM */
static const char * const ZoomInCursorXpm[] = {
"32 32 3 1",
" 	c #FF0000",
".	c #FFFFFF",
"+	c #000000",
"                                ",
"                                ",
"                                ",
"                                ",
"                                ",
"                                ",
"                                ",
"                                ",
"                ....            ",
"               .++++.           ",
"              .+    +.          ",
"             .+  ++  +.         ",
"            .+   ++   +.        ",
"            .+ ++++++ +.        ",
"            .+ ++++++ +.        ",
"            .+   ++   +.        ",
"             .+  ++  +.         ",
"             .++    +.          ",
"            .++.++++.           ",
"           .++. ....            ",
"          .++.                  ",
"         .++.                   ",
"        .++.                    ",
"        .+.                     ",
"         .                      ",
"                                ",
"                                ",
"                                ",
"                                ",
"                                ",
"                                ",
"                                "};
