/* XPM */
static const char * const ZoomOutCursorXpm[] = {
"32 32 15 1",
" 	c #FF0000",
".	c #000000",
"+	c #A3A3A3",
"@	c #D4D4D4",
"#	c #8A8A8A",
"$	c #FFFFFF",
"%	c #848484",
"&	c #6C6C6C",
"*	c #C4C4C4",
"=	c #494949",
"-	c #DEDEDE",
";	c #E6E6E6",
">	c #727272",
",	c #939393",
"'	c #9D9D9D",
"                                ",
"                                ",
"                                ",
"                                ",
"                                ",
"                                ",
"                                ",
"                                ",
"                                ",
"                                ",
"               ...              ",
"             ..+@+..            ",
"            .#$$$$$%.           ",
"           .&$*&=&*$&.          ",
"           .$-..$..-$.          ",
"          .&$&..$..&$&.         ",
"          .+$=$$$$$=$+.         ",
"          .&$&..$..&$&.         ",
"           .$-..$..;$.          ",
"           .&$*&=&*$>.          ",
"            .%$$$$$$$,.         ",
"             ..+@+.=$$'.        ",
"               ... .+$$+.       ",
"                    .+$$+.      ",
"                     .'$$+.     ",
"                      .'$*.     ",
"                       .>.      ",
"                        .       ",
"                                ",
"                                ",
"                                ",
"                                "};
