/* XPM */
static const char * const audacity_xpm[] = {
"48 48 77 1",
" 	c None",
".	c #DB2A29",
"+	c #DB2B28",
"@	c #DC2B28",
"#	c #DC2C27",
"$	c #DD2D26",
"%	c #DE2E25",
"&	c #DE2F24",
"*	c #DF2F24",
"=	c #DF3023",
"-	c #E03023",
";	c #E03122",
">	c #E13122",
",	c #E13221",
"'	c #E23320",
")	c #E3341F",
"!	c #E3351E",
"~	c #E4351E",
"{	c #E4361D",
"]	c #E5371C",
"^	c #E5381B",
"/	c #E6381B",
"(	c #E6391A",
"_	c #E7391A",
":	c #E73A19",
"<	c #E73A18",
"[	c #DA292A",
"}	c #DA2A29",
"|	c #E93A19",
"1	c #D9282B",
"2	c #DA292B",
"3	c #DB2F31",
"4	c #EE9FA0",
"5	c #FBEAEA",
"6	c #FFFFFF",
"7	c #FDEBE9",
"8	c #F4A698",
"9	c #E83E20",
"0	c #D7282D",
"a	c #D9272C",
"b	c #EE9E9F",
"c	c #F4A597",
"d	c #D8262D",
"e	c #D8272C",
"f	c #FBEBEB",
"g	c #FDECEA",
"h	c #D7262D",
"i	c #D7252E",
"j	c #D6242F",
"k	c #D52330",
"l	c #D52231",
"m	c #D42231",
"n	c #D42132",
"o	c #D32132",
"p	c #D32033",
"q	c #D22033",
"r	c #D21F34",
"s	c #D11E35",
"t	c #D01D36",
"u	c #D01C37",
"v	c #CF1C37",
"w	c #CF1B38",
"x	c #CE1A39",
"y	c #CE193A",
"z	c #CD193A",
"A	c #CD183B",
"B	c #CC183B",
"C	c #CC173C",
"D	c #FAE8EC",
"E	c #FBE9E9",
"F	c #E897A7",
"G	c #EE9E9E",
"H	c #DB2B29",
"I	c #CD1E40",
"J	c #CB173C",
"K	c #DA282B",
"L	c #CB173D",
"    .++@##$$$%%&**=-;;>,,'''))!~~{{]]^//(_:<    ",
"  [[}.++@##$$$%%&**=-;;>,,'''))!~~{{]]^//(_::|  ",
" 12[[}.++@##$$$%%&**=-;;>,,'''))!~~{{]]^//(_::: ",
" 11345666666666666666666666666666666666666789:: ",
"0a1b6666666666666666666666666666666666666666c_::",
"deaf6666666666666666666666666666666666666666g(_:",
"dde666666666666666666666=-;;>,666666666666666/(_",
"hdd666666666666666666666*=-;;>666666666666666//(",
"ihd666666666666666666666**=-;;666666666666666^//",
"iih666666666666666666666&**=-;666666666666666]^/",
"jii666666666666666666666%&**=-666666666666666]]^",
"jji666666666666666666666%%&**=666666666666666{]]",
"jjj6666666662[[}.+666666$%%&**666666666666666{{]",
"kjj66666666611[[}.666666$$%%&*666666666666666~{{",
"kkj666666666112[[}666666$$$%%&666666666666666~~{",
"lkk666666666a112[[666666#$$$%%&**=-;666666666!~~",
"mlk666666666ea111[666666##$$$%%&**=-666666666)!~",
"mml666666666dea112666666@##$$$%%&**=666666666))!",
"nmm666666666ddea112[[}.++@##$$$%%&**666666666'))",
"onm666666666hddea111[[}.++@##$$$%%&*666666666'')",
"pon666666666ihddea112[[}.++@##$$$%%&666666666'''",
"pponmmlkkjjjiihddea112[[}.++@##$$$%%&**=-;;>,,''",
"qpponmmlkkjjjiihddea111[[}.++@##$$$%%&**=-;;>,,'",
"rqpponmmlkkjjjiihddea112[[}.++@##$$$%%&**=-;;>,,",
"rrqpponmmlkkjjjiihddea112[[}.++@##$$$%%&**=-;;>,",
"srrqpponmmlkkjjjiihddea111[[}.++@##$$$%%&**=-;;>",
"ssrrqpponmmlkkjjjiihddea112[[}.++@##$$$%%&**=-;;",
"sss666666666lkkjjjiihddea112[[}.++@#666666666=-;",
"tss666666666mlkkjjjiihddea111[[}.++@666666666*=-",
"tts666666666mmlkkjjjiihddea112[[}.++666666666**=",
"utt666666666nmmlkk666666ddea112[[}.+666666666&**",
"vut666666666onmmlk666666hddea111[[}.666666666%&*",
"vvu666666666ponmml666666ihddea112[[}666666666%%&",
"wwv666666666pponmm666666iihdde666666666666666$%%",
"www666666666qpponm666666jiihdd666666666666666$$%",
"xww666666666rqppon666666jjiihd666666666666666$$$",
"xxw666666666666666666666jjjiih666666666666666#$$",
"yxx666666666666666666666kjjjii666666666666666##$",
"zyx666666666666666666666kkjjji666666666666666@##",
"zzy666666666666666666666lkkjjj666666666666666+@#",
"Azz666666666666666666666mlkkjj666666666666666++@",
"BAz666666666666666666666mmlkkj666666666666666.++",
"CBAD6666666666666666666666666666666666666666E}.+",
"CCBF6666666666666666666666666666666666666666G[}H",
" CCIFD6666666666666666666666666666666666665b3[[ ",
" JCCBAzzyxxwwwvuttsssrrqpponmmlkkjjjiihddea1122 ",
"  JCCBAzzyxxwwwvuttsssrrqpponmmlkkjjjiihddea1K  ",
"    LCBAzzyxxwwwvuttsssrrqpponmmlkkjjjiihdde    "};
