/* XPM */
static const char * const UndoAlpha[] = {
"26 24 2 1",
" 	c #000000",
".	c #FFFFFF",
"                          ",
"                          ",
"                          ",
"                          ",
"                          ",
"                          ",
"                          ",
"                          ",
"            ....          ",
"          ...  ...        ",
"      .  ..      ..       ",
"      ....        .       ",
"      ...         .       ",
"      ....        .       ",
"                  .       ",
"                 ..       ",
"               ...        ",
"                          ",
"                          ",
"                          ",
"                          ",
"                          ",
"                          ",
"                          "};
