/* XPM */
static const char * const audacity32_xpm[] = {
"32 32 55 1",
" 	c None",
".	c #DA2A28",
"+	c #DB2A29",
"@	c #DB2B28",
"#	c #DC2C27",
"$	c #DD2D26",
"%	c #DE2E25",
"&	c #DE2F24",
"*	c #DF2F24",
"=	c #DF3023",
"-	c #E03023",
";	c #E03122",
">	c #E13221",
",	c #E23320",
"'	c #E3341F",
")	c #E3351E",
"!	c #E4351E",
"~	c #E4361D",
"{	c #E5371C",
"]	c #E6381B",
"^	c #E7391A",
"/	c #E73A19",
"(	c #E73919",
"_	c #DA292B",
":	c #DA292A",
"<	c #DA2A29",
"[	c #E83A19",
"}	c #DA272D",
"|	c #D9282B",
"1	c #E83A18",
"2	c #D8272C",
"3	c #D9272C",
"4	c #D8262D",
"5	c #D7252E",
"6	c #D6242F",
"7	c #D52330",
"8	c #D52231",
"9	c #D42231",
"0	c #D42132",
"a	c #D32132",
"b	c #D32033",
"c	c #D21F34",
"d	c #D11E35",
"e	c #D01D36",
"f	c #D01C37",
"g	c #CF1C37",
"h	c #CF1B38",
"i	c #CE1A39",
"j	c #CD193A",
"k	c #CC183B",
"l	c #CC173C",
"m	c #DB2B29",
"n	c #CB173C",
"o	c #CC183A",
"p	c #CB163C",
"  .+@##$$%&*=-;>>,,')!~{{]]^/(  ",
" _:<+@##$$%&*=-;>>,,')!~{{]]^/[ ",
"}|_                          ^/1",
"23                            ^/",
"42              =-;>          ]^",
"54              *=-;          ]]",
"55              &*=-          {]",
"65              %&*=          {{",
"66      _:<+    $%&*          ~{",
"76      |_:<    $$%&          !~",
"87      3|_:    #$$%&*=-      )!",
"98      23|_    ##$$%&*=      ')",
"09      423|_:<+@##$$%&*      ,'",
"a0      5423|_:<+@##$$%&      ,,",
"ba09876655423|_:<+@##$$%&*=-;>>,",
"cba09876655423|_:<+@##$$%&*=-;>>",
"ccba09876655423|_:<+@##$$%&*=-;>",
"dccba09876655423|_:<+@##$$%&*=-;",
"dd      876655423|_:<+@#      =-",
"ed      9876655423|_:<+@      *=",
"fe      0987    423|_:<+      &*",
"gf      a098    5423|_:<      %&",
"hg      ba09    5542          $%",
"ih      cba0    6554          $$",
"ii              6655          #$",
"ji              7665          ##",
"jj              8766          @#",
"kj              9876          +@",
"lk                            <m",
"nlo                          _:.",
" nlkjjiihgfeddccba09876655423|_ ",
"  plkjjiihgfeddccba0987665542}  "};
