/* XPM */
static const char * const audacity32_xpm[] = {
"32 32 69 1",
" 	c None",
".	c #DA2A28",
"+	c #DB2A29",
"@	c #DB2B28",
"#	c #DC2C27",
"$	c #DD2D26",
"%	c #DE2E25",
"&	c #DE2F24",
"*	c #DF2F24",
"=	c #DF3023",
"-	c #E03023",
";	c #E03122",
">	c #E13221",
",	c #E23320",
"'	c #E3341F",
")	c #E3351E",
"!	c #E4351E",
"~	c #E4361D",
"{	c #E5371C",
"]	c #E6381B",
"^	c #E7391A",
"/	c #E73A19",
"(	c #E73919",
"_	c #DB2A2C",
":	c #DA292A",
"<	c #DA2A29",
"[	c #E93C1B",
"}	c #DA272D",
"|	c #D9282B",
"1	c #E5696A",
"2	c #FBE8E8",
"3	c #FFFFFF",
"4	c #FCEAE7",
"5	c #EE745E",
"6	c #E83A18",
"7	c #D8272C",
"8	c #D9272C",
"9	c #FBE8E9",
"0	c #FCE9E6",
"a	c #D8262D",
"b	c #D7252E",
"c	c #D6242F",
"d	c #DA292B",
"e	c #D52330",
"f	c #D52231",
"g	c #D42231",
"h	c #D42132",
"i	c #D32132",
"j	c #D32033",
"k	c #D21F34",
"l	c #D11E35",
"m	c #D01D36",
"n	c #D01C37",
"o	c #CF1C37",
"p	c #CF1B38",
"q	c #CE1A39",
"r	c #CD193A",
"s	c #CC183B",
"t	c #CC173C",
"u	c #FAE6E9",
"v	c #DB2B29",
"w	c #CB173C",
"x	c #DB5D75",
"y	c #FAE7EA",
"z	c #FBE7E8",
"A	c #E56869",
"B	c #CC1A3E",
"C	c #DB2C2F",
"D	c #CB163C",
"  .+@##$$%&*=-;>>,,')!~{{]]^/(  ",
" _:<+@##$$%&*=-;>>,,')!~{{]]^/[ ",
"}|1233333333333333333333333345/6",
"789333333333333333333333333330^/",
"a733333333333333=-;>3333333333]^",
"ba33333333333333*=-;3333333333]]",
"bb33333333333333&*=-3333333333{]",
"cb33333333333333%&*=3333333333{{",
"cc333333d:<+3333$%&*3333333333~{",
"ec333333|d:<3333$$%&3333333333!~",
"fe3333338|d:3333#$$%&*=-333333)!",
"gf33333378|d3333##$$%&*=333333')",
"hg333333a78|d:<+@##$$%&*333333,'",
"ih333333ba78|d:<+@##$$%&333333,,",
"jihgfeccbba78|d:<+@##$$%&*=-;>>,",
"kjihgfeccbba78|d:<+@##$$%&*=-;>>",
"kkjihgfeccbba78|d:<+@##$$%&*=-;>",
"lkkjihgfeccbba78|d:<+@##$$%&*=-;",
"ll333333feccbba78|d:<+@#333333=-",
"ml333333gfeccbba78|d:<+@333333*=",
"nm333333hgfe3333a78|d:<+333333&*",
"on333333ihgf3333ba78|d:<333333%&",
"po333333jihg3333bba73333333333$%",
"qp333333kjih3333cbba3333333333$$",
"qq33333333333333ccbb3333333333#$",
"rq33333333333333eccb3333333333##",
"rr33333333333333fecc3333333333@#",
"sr33333333333333gfec3333333333+@",
"tsu333333333333333333333333332<v",
"wtxy333333333333333333333333zA:.",
" Btsrrqqponmllkkjihgfeccbba78|C ",
"  Dtsrrqqponmllkkjihgfeccbba7}  "};
