/* XPM */
static const char * const AudacityLogoAlpha_xpm[] = {
"48 48 61 1",
" 	c None",
".	c #DB2A29",
"+	c #DB2B28",
"@	c #DC2B28",
"#	c #DC2C27",
"$	c #DD2D26",
"%	c #DE2E25",
"&	c #DE2F24",
"*	c #DF2F24",
"=	c #DF3023",
"-	c #E03023",
";	c #E03122",
">	c #E13122",
",	c #E13221",
"'	c #E23320",
")	c #E3341F",
"!	c #E3351E",
"~	c #E4351E",
"{	c #E4361D",
"]	c #E5371C",
"^	c #E5381B",
"/	c #E6381B",
"(	c #E6391A",
"_	c #E7391A",
":	c #E73A19",
"<	c #E73A18",
"[	c #DA292A",
"}	c #DA2A29",
"|	c #E93A19",
"1	c #D9282B",
"2	c #DA292B",
"3	c #D7282D",
"4	c #D9272C",
"5	c #D8262D",
"6	c #D8272C",
"7	c #D7262D",
"8	c #D7252E",
"9	c #D6242F",
"0	c #D52330",
"a	c #D52231",
"b	c #D42231",
"c	c #D42132",
"d	c #D32132",
"e	c #D32033",
"f	c #D22033",
"g	c #D21F34",
"h	c #D11E35",
"i	c #D01D36",
"j	c #D01C37",
"k	c #CF1C37",
"l	c #CF1B38",
"m	c #CE1A39",
"n	c #CE193A",
"o	c #CD193A",
"p	c #CD183B",
"q	c #CC183B",
"r	c #CC173C",
"s	c #DB2B29",
"t	c #CB173C",
"u	c #DA282B",
"v	c #CB173D",
"    .++@##$$$%%&**=-;;>,,'''))!~~{{]]^//(_:<    ",
"  [[}.++@##$$$%%&**=-;;>,,'''))!~~{{]]^//(_::|  ",
" 12[[}.++@##$$$%%&**=-;;>,,'''))!~~{{]]^//(_::: ",
" 112                                        _:: ",
"341                                          _::",
"564                                          (_:",
"556                     =-;;>,               /(_",
"755                     *=-;;>               //(",
"875                     **=-;;               ^//",
"887                     &**=-;               ]^/",
"988                     %&**=-               ]]^",
"998                     %%&**=               {]]",
"999         2[[}.+      $%%&**               {{]",
"099         11[[}.      $$%%&*               ~{{",
"009         112[[}      $$$%%&               ~~{",
"a00         4112[[      #$$$%%&**=-;         !~~",
"ba0         64111[      ##$$$%%&**=-         )!~",
"bba         564112      @##$$$%%&**=         ))!",
"cbb         5564112[[}.++@##$$$%%&**         '))",
"dcb         75564111[[}.++@##$$$%%&*         '')",
"edc         875564112[[}.++@##$$$%%&         '''",
"eedcbba009998875564112[[}.++@##$$$%%&**=-;;>,,''",
"feedcbba009998875564111[[}.++@##$$$%%&**=-;;>,,'",
"gfeedcbba009998875564112[[}.++@##$$$%%&**=-;;>,,",
"ggfeedcbba009998875564112[[}.++@##$$$%%&**=-;;>,",
"hggfeedcbba009998875564111[[}.++@##$$$%%&**=-;;>",
"hhggfeedcbba009998875564112[[}.++@##$$$%%&**=-;;",
"hhh         a009998875564112[[}.++@#         =-;",
"ihh         ba009998875564111[[}.++@         *=-",
"iih         bba009998875564112[[}.++         **=",
"jii         cbba00      5564112[[}.+         &**",
"kji         dcbba0      75564111[[}.         %&*",
"kkj         edcbba      875564112[[}         %%&",
"llk         eedcbb      887556               $%%",
"lll         feedcb      988755               $$%",
"mll         gfeedc      998875               $$$",
"mml                     999887               #$$",
"nmm                     099988               ##$",
"onm                     009998               @##",
"oon                     a00999               +@#",
"poo                     ba0099               ++@",
"qpo                     bba009               .++",
"rqp                                          }.+",
"rrq                                          [}s",
" rrq                                        2[[ ",
" trrqpoonmmlllkjiihhhggfeedcbba0099988755641122 ",
"  trrqpoonmmlllkjiihhhggfeedcbba0099988755641u  ",
"    vrqpoonmmlllkjiihhhggfeedcbba00999887556    "};
