/* XPM */
static const char * const AudacityLogo48x48_xpm[] = {
"48 48 82 1",
" 	c None",
".	c #DB2A29",
"+	c #DD4947",
"@	c #DB2B28",
"#	c #DC2B28",
"$	c #DC2C27",
"%	c #DD2D26",
"&	c #DE2E25",
"*	c #DE2F24",
"=	c #DF2F24",
"-	c #DF3023",
";	c #E03023",
">	c #E03122",
",	c #E13122",
"'	c #E13221",
")	c #E23320",
"!	c #E3341F",
"~	c #E3351E",
"{	c #E4351E",
"]	c #E4361D",
"^	c #E5371C",
"/	c #E5381B",
"(	c #E6381B",
"_	c #E6391A",
":	c #E7391A",
"<	c #E85748",
"[	c #E73A18",
"}	c #DA292A",
"|	c #DA2A29",
"1	c #E73A19",
"2	c #E93A19",
"3	c #D9282B",
"4	c #DA292B",
"5	c #DB3F40",
"6	c #EFC6C6",
"7	c #FBF4F4",
"8	c #FFFFFF",
"9	c #FDF4F4",
"0	c #F5C7C4",
"a	c #E84936",
"b	c #E08485",
"c	c #D9272C",
"d	c #EFC5C5",
"e	c #F4C6C4",
"f	c #EC8881",
"g	c #DA484C",
"h	c #D8272C",
"i	c #FDF5F4",
"j	c #E8503E",
"k	c #D8262D",
"l	c #D7262D",
"m	c #D7252E",
"n	c #D6242F",
"o	c #D52330",
"p	c #D52231",
"q	c #D42231",
"r	c #D42132",
"s	c #D32132",
"t	c #D32033",
"u	c #D22033",
"v	c #D21F34",
"w	c #D11E35",
"x	c #D01D36",
"y	c #D01C37",
"z	c #CF1C37",
"A	c #CF1B38",
"B	c #CE1A39",
"C	c #CE193A",
"D	c #CD193A",
"E	c #CD183B",
"F	c #CC183B",
"G	c #CC173C",
"H	c #FBF3F3",
"I	c #DD4F4D",
"J	c #EAC4C7",
"K	c #E48787",
"L	c #CB173C",
"M	c #E28181",
"N	c #DA282B",
"O	c #CB173D",
"P	c #CF495A",
"Q	c #E28788",
"    .+@#$$%%%&&*==-;>>,'')))!!~{{]]^^/((_:<[    ",
"  }}|.@@#$$%%%&&*==-;>>,'')))!!~{{]]^^/((_:112  ",
" 34}}|.@@#$$%%%&&*==-;>>,'')))!!~{{]]^^/((_:111 ",
" 3356788888888888888888888888888888888888890a11 ",
"bc3d8888888888888888888888888888888888888888e:1f",
"ghc78888888888888888888888888888888888888888i_:j",
"kkh888888888888888888888-;>>,'888888888888888(_:",
"lkk888888888888888888888=-;>>,888888888888888((_",
"mlk888888888888888888888==-;>>888888888888888/((",
"mml888888888888888888888*==-;>888888888888888^/(",
"nmm888888888888888888888&*==-;888888888888888^^/",
"nnm888888888888888888888&&*==-888888888888888]^^",
"nnn8888888884}}|.@888888%&&*==888888888888888]]^",
"onn88888888833}}|.888888%%&&*=888888888888888{]]",
"oon888888888334}}|888888%%%&&*888888888888888{{]",
"poo888888888c334}}888888$%%%&&*==-;>888888888~{{",
"qpo888888888hc333}888888$$%%%&&*==-;888888888!~{",
"qqp888888888khc334888888#$$%%%&&*==-888888888!!~",
"rqq888888888kkhc334}}|.@@#$$%%%&&*==888888888)!!",
"srq888888888lkkhc333}}|.@@#$$%%%&&*=888888888))!",
"tsr888888888mlkkhc334}}|.@@#$$%%%&&*888888888)))",
"ttsrqqpoonnnmmlkkhc334}}|.@@#$$%%%&&*==-;>>,''))",
"uttsrqqpoonnnmmlkkhc333}}|.@@#$$%%%&&*==-;>>,'')",
"vuttsrqqpoonnnmmlkkhc334}}|.@@#$$%%%&&*==-;>>,''",
"vvuttsrqqpoonnnmmlkkhc334}}|.@@#$$%%%&&*==-;>>,'",
"wvvuttsrqqpoonnnmmlkkhc333}}|.@@#$$%%%&&*==-;>>,",
"wwvvuttsrqqpoonnnmmlkkhc334}}|.@@#$$%%%&&*==-;>>",
"www888888888poonnnmmlkkhc334}}|.@@#$888888888-;>",
"xww888888888qpoonnnmmlkkhc333}}|.@@#888888888=-;",
"xxw888888888qqpoonnnmmlkkhc334}}|.@@888888888==-",
"yxx888888888rqqpoo888888kkhc334}}|.@888888888*==",
"zyx888888888srqqpo888888lkkhc333}}|.888888888&*=",
"zzy888888888tsrqqp888888mlkkhc334}}|888888888&&*",
"AAz888888888ttsrqq888888mmlkkh888888888888888%&&",
"AAA888888888uttsrq888888nmmlkk888888888888888%%&",
"BAA888888888vuttsr888888nnmmlk888888888888888%%%",
"BBA888888888888888888888nnnmml888888888888888$%%",
"CBB888888888888888888888onnnmm888888888888888$$%",
"DCB888888888888888888888oonnnm888888888888888#$$",
"DDC888888888888888888888poonnn888888888888888@#$",
"EDD888888888888888888888qpoonn888888888888888@@#",
"FED888888888888888888888qqpoon888888888888888.@@",
"GFE78888888888888888888888888888888888888888H|.I",
"GGFJ8888888888888888888888888888888888888888d}|K",
" GGFJ78888888888888888888888888888888888887d5}} ",
" LGGFEDDCBBAAAzyxxwwwvvuttsrqqpoonnnmmlkkhc334M ",
"  LGGFEDDCBBAAAzyxxwwwvvuttsrqqpoonnnmmlkkhc3N  ",
"    OPFEDDCBBAAAzyxxwwwvvuttsrqqpoonnnmmlkgQ    "};
