/* XPM */
static const char * const checked_xpm[] = {
"15 15 64 1",
" 	c #FFFFFF",
".	c #8E8F8F",
"+	c #F4F4F4",
"@	c #F8F8F8",
"#	c #F9F9F9",
"$	c #F6F6F6",
"%	c #ACB3BB",
"&	c #AEB5BD",
"*	c #4FD259",
"=	c #3AB845",
"-	c #ABB2BA",
";	c #F5F5F5",
">	c #DADEE3",
",	c #DDE1E6",
"'	c #DFE2E6",
")	c #DDE1E4",
"!	c #DEE1E5",
"~	c #31C33A",
"{	c #35A83E",
"]	c #7DA38D",
"^	c #DDE0E5",
"/	c #DDE0E4",
"(	c #57E05F",
"_	c #28B033",
":	c #29BC3E",
"<	c #DDE2E6",
"[	c #E2E6E7",
"}	c #0AB512",
"|	c #28B434",
"1	c #5BDE62",
"2	c #AEB4BA",
"3	c #9BEAA1",
"4	c #52D162",
"5	c #E1E5E5",
"6	c #9AEAA0",
"7	c #1AAC24",
"8	c #52DB5B",
"9	c #EFF0F1",
"0	c #ABB3BA",
"a	c #21DC2E",
"b	c #1DA72A",
"c	c #B1EDBB",
"d	c #15CD1F",
"e	c #1DA424",
"f	c #78E17F",
"g	c #E8EAEB",
"h	c #ADB4BC",
"i	c #CEF1D5",
"j	c #24B22D",
"k	c #41C54E",
"l	c #23AD2B",
"m	c #0FC118",
"n	c #E5E9EB",
"o	c #E6E9EC",
"p	c #DDE2E4",
"q	c #2EC137",
"r	c #31B13C",
"s	c #34BE3E",
"t	c #88ED90",
"u	c #E2E5E8",
"v	c #E1E4E8",
"w	c #A2AAB2",
"x	c #31C139",
"y	c #86BE9A",
"               ",
" ............. ",
" .+++++++@#$+. ",
" .+%%%%%&*=-;. ",
" .+%>,')!~{]$. ",
" .+%^/^'(_:%+. ",
" .+%<)![}|12+. ",
" .+%34567892+. ",
" .+0abcdefgh+. ",
" .+%ijklmnoh+. ",
" .+%pqrstuvh+. ",
" .+%%wxy%%%%+. ",
" .+++;#@;++++. ",
" ............. ",
"               "};
