/* XPM */
static char * gnome_mime_application_x_tenacity_project_xpm[] = {
"48 48 271 2",
"  	c None",
". 	c #848484",
"+ 	c #858585",
"@ 	c #878787",
"# 	c #8A8A8A",
"$ 	c #8D8D8D",
"% 	c #8B8B8B",
"& 	c #868686",
"* 	c #838383",
"= 	c #808080",
"- 	c #7D7D7D",
"; 	c #7A7A7A",
"> 	c #777777",
", 	c #757575",
"' 	c #747474",
") 	c #727272",
"! 	c #767676",
"~ 	c #7E7E7E",
"{ 	c #787878",
"] 	c #737373",
"^ 	c #6E6E6E",
"/ 	c #6A6A6A",
"( 	c #656565",
"_ 	c #606060",
": 	c #5C5C5C",
"< 	c #575757",
"[ 	c #525252",
"} 	c #505050",
"| 	c #4F4F4F",
"1 	c #545454",
"2 	c #585858",
"3 	c #818181",
"4 	c #DDDDDD",
"5 	c #E5E5E5",
"6 	c #EBEBEB",
"7 	c #F5F5F5",
"8 	c #F8F8F8",
"9 	c #F9F9F9",
"0 	c #F7F7F7",
"a 	c #F6F6F6",
"b 	c #F2F2F2",
"c 	c #F1F1F1",
"d 	c #F4F4F4",
"e 	c #F0F0F0",
"f 	c #5E5E5E",
"g 	c #E3E3E3",
"h 	c #D6D6D6",
"i 	c #CFCFCF",
"j 	c #CBCBCB",
"k 	c #CACACA",
"l 	c #D8D8D8",
"m 	c #D2D2D2",
"n 	c #D4D4D4",
"o 	c #D9D9D9",
"p 	c #DEDEDE",
"q 	c #DFDFDF",
"r 	c #DBDBDB",
"s 	c #D7D7D7",
"t 	c #E0E0E0",
"u 	c #DCDCDC",
"v 	c #E2E2E2",
"w 	c #DADADA",
"x 	c #EEEEEE",
"y 	c #616161",
"z 	c #E8E8E8",
"A 	c #C7C7C7",
"B 	c #C5C5C5",
"C 	c #C2C2C2",
"D 	c #E4E4E4",
"E 	c #C6C6C6",
"F 	c #C3C3C3",
"G 	c #BFBFBF",
"H 	c #E6E6E6",
"I 	c #E7E7E7",
"J 	c #E1E1E1",
"K 	c #BEBEBE",
"L 	c #D0D0D0",
"M 	c #E9E9E9",
"N 	c #ECECEC",
"O 	c #EAEAEA",
"P 	c #F3F3F3",
"Q 	c #595959",
"R 	c #CCCCCC",
"S 	c #C4C4C4",
"T 	c #D5D5D5",
"U 	c #EDEDED",
"V 	c #EFEFEF",
"W 	c #555555",
"X 	c #C8C8C8",
"Y 	c #717171",
"Z 	c #C1C1C1",
"` 	c #C0C0C0",
" .	c #ECECED",
"..	c #EBEBEC",
"+.	c #5D5D5D",
"@.	c #BDBDBD",
"#.	c #EFE3E3",
"$.	c #ED8E8D",
"%.	c #EC4943",
"&.	c #EE3E34",
"*.	c #EF3F33",
"=.	c #EF4033",
"-.	c #F04132",
";.	c #F14231",
">.	c #F24330",
",.	c #F2442F",
"'.	c #F3452E",
").	c #F4462D",
"!.	c #F5472D",
"~.	c #F7482C",
"{.	c #F7492B",
"].	c #F84A2A",
"^.	c #F94B29",
"/.	c #FA563C",
"(.	c #F8938A",
"_.	c #F2E6E5",
":.	c #707070",
"<.	c #EC8E8D",
"[.	c #EC8C8B",
"}.	c #F2D5D4",
"|.	c #F3D8D8",
"1.	c #F3D7D7",
"2.	c #F3D7D6",
"3.	c #EFD3D2",
"4.	c #EFD2D1",
"5.	c #EFD1D0",
"6.	c #F0D1D0",
"7.	c #F1D3D1",
"8.	c #F3D5D3",
"9.	c #F2D1CF",
"0.	c #F78E84",
"a.	c #F78F86",
"b.	c #515151",
"c.	c #C9C9C9",
"d.	c #E94745",
"e.	c #F3D6D6",
"f.	c #FAFAFA",
"g.	c #F1B9B7",
"h.	c #EFB7B5",
"i.	c #EED4D3",
"j.	c #F5F5F6",
"k.	c #F2D2D0",
"l.	c #FA5437",
"m.	c #CDCDCD",
"n.	c #A2A2A2",
"o.	c #E83A39",
"p.	c #F3DADA",
"q.	c #FBFBFB",
"r.	c #EDB0AD",
"s.	c #F2D7D5",
"t.	c #BBBBBB",
"u.	c #E7393A",
"v.	c #F1D8D8",
"w.	c #EEB1AF",
"x.	c #5F5F5F",
"y.	c #E7383B",
"z.	c #EB3C37",
"A.	c #EB3C36",
"B.	c #F3BBBB",
"C.	c #F8F8F7",
"D.	c #EEB1AE",
"E.	c #F1D5D4",
"F.	c #5A5A5A",
"G.	c #6F6F6F",
"H.	c #D1D1D1",
"I.	c #E6373C",
"J.	c #F3DBDB",
"K.	c #EA3B37",
"L.	c #F0B9B8",
"M.	c #F5F5F3",
"N.	c #EF6D66",
"O.	c #F18E89",
"P.	c #F3918C",
"Q.	c #F1D5D3",
"R.	c #6D6D6D",
"S.	c #E5363D",
"T.	c #F2DBDB",
"U.	c #E93B38",
"V.	c #EC8D8C",
"W.	c #EEB8B8",
"X.	c #EDB7B6",
"Y.	c #565656",
"Z.	c #6C6C6C",
"`.	c #CECECE",
" +	c #E3353E",
".+	c #EEBEBF",
"++	c #EFD4D5",
"@+	c #EDD2D2",
"#+	c #ECD1D1",
"$+	c #EC3D35",
"%+	c #F0D3D1",
"&+	c #F0BCB9",
"*+	c #D3D3D3",
"=+	c #E3343F",
"-+	c #686868",
";+	c #E2343F",
">+	c #626262",
",+	c #E13340",
"'+	c #EDBEBF",
")+	c #ECD2D2",
"!+	c #E8CDCE",
"~+	c #E8CCCC",
"{+	c #EBCDCC",
"]+	c #F0D3D2",
"^+	c #F0D4D3",
"/+	c #F0BBB9",
"(+	c #E03241",
"_+	c #F1DBDB",
":+	c #E88384",
"<+	c #EAADAD",
"[+	c #EBAEAE",
"}+	c #F2D8D7",
"|+	c #4E4E4E",
"1+	c #DF3142",
"2+	c #F2DBDC",
"3+	c #EBB4B4",
"4+	c #EB6D6B",
"5+	c #ED8E8C",
"6+	c #F2D8D8",
"7+	c #DF3043",
"8+	c #F4DDDE",
"9+	c #ECB7B8",
"0+	c #EEB7B6",
"a+	c #646464",
"b+	c #BCBCBC",
"c+	c #DE2F44",
"d+	c #F3DCDD",
"e+	c #F0B9B9",
"f+	c #F0D6D5",
"g+	c #DD2F45",
"h+	c #F0DADA",
"i+	c #F0BABA",
"j+	c #6B6B6B",
"k+	c #DC3B4F",
"l+	c #EAD0D2",
"m+	c #EDB3B4",
"n+	c #EFB4B4",
"o+	c #F0D4D4",
"p+	c #EC4B45",
"q+	c #696969",
"r+	c #E1878E",
"s+	c #E0858B",
"t+	c #EAD0D1",
"u+	c #EED6D7",
"v+	c #F0D8D8",
"w+	c #F0D7D8",
"x+	c #F0D7D7",
"y+	c #F1D7D7",
"z+	c #F1D6D6",
"A+	c #F3D9D9",
"B+	c #F2D6D6",
"C+	c #ED8A89",
"D+	c #ED8F8D",
"E+	c #666666",
"F+	c #F0E8E8",
"G+	c #E28E94",
"H+	c #DD4253",
"I+	c #E94845",
"J+	c #EC8F8E",
"K+	c #F1E5E5",
"L+	c #4D4D4D",
"M+	c #4B4B4B",
"N+	c #636363",
"O+	c #454545",
"P+	c #404040",
"Q+	c #5B5B5B",
"R+	c #424242",
"S+	c #3E3E3E",
"T+	c #3D3D3D",
"U+	c #535353",
"V+	c #494949",
"                                                                                                ",
"                                                                                                ",
"                                                                                                ",
"              . + @ # $ % # & . * = - ; > , ' ) ! - ~ - { ] ^ / ( _ : < [ } | 1 2               ",
"            3 4 5 6 7 8 9 9 9 9 9 9 0 0 0 0 0 0 a 0 0 a 0 7 7 a 7 7 7 7 b c c d e f             ",
"            3 g h i j k l m n o p q q q r s o o o l q t r u r o u q v r w p g x d y             ",
"            = z s A B C s n u v g v p r u r l u t q t D v t 4 w w u p t q q s 6 a (             ",
"            = x h E F G m l t H I I D q t t u q 4 r q z z v 4 q J J J t J u w u 0 y             ",
"            - e i B C K L w g z M g D D g g 5 I 5 4 I N N 6 O I z I 6 6 g J u u P Q             ",
"            ; d R S C K T u g z M H I I H M x U 6 N U U U U x V x N V V U 5 D w c W             ",
"            ! d X F C C l 4 g H H z M O M N V V V x x x x x e V V V c b x M H v c [             ",
"            Y d E S F A u q D I H 5 O 6 N U c V U x V V e e e e e e V b e N O H b |             ",
"            ' d E Z S A t t I 6 N M x V x U x e V V V e e V e e e b b b c x N O b 1             ",
"            ' d E ` F B p g O x V U x x U U x x U U U U  ... .U U x x c c V N z e +.            ",
"            ) P X @.C Z q D N x e #.$.%.&.*.=.-.;.>.,.'.).!.~.{.].^./.(._.e U M 7 Q             ",
"            :.b A A A F t 5 U x c <.[.}.|.1.2.2.2.3.4.5.5.5.6.6.7.8.9.0.a.V N z a b.            ",
"            ^ V i k R c.q H U V e d.e.0 0 0 a 0 f.8 d g.h.i.U c j.d P k.l.U 6 M 7 2             ",
"            Y e m.n.Z j q z x x V o.p.0 P d a 9 q.9 8 ;.>.r.U P 9 9 7 s.^.N 6 O a _             ",
"            ' c A 3 t.k J 6 x V c u.v.0 P b a 9 f.9 8 -.;.w.V 7 9 f.8 s.].N 6 6 0 x.            ",
"            ) e L k w k v 6 e d d y.v.j.P P z.A.B.8 C.=.-.D.b d 8 9 8 E.{.x U x 0 F.            ",
"            G.e H.H.m R g M b d d I.J.7 V V K.z.L.a M.*.=.N.O.P.a 0 P Q.~.b e e b <             ",
"            R.b h H.m m.H I V d P S.T.P V V U.K.V.W.X.&.*.=.-.;.d d V Q.!.d c c c Y.            ",
"            Z.V h `.`.m.I I V P P  +.+++@+#+o.U.K.z.A.$+&.*.=.-.3.%+5.&+).7 b c c 1             ",
"            / x *+m.`.E H I e P P =+ +S.I.y.u.o.U.K.z.A.$+&.*.=.-.;.>.,.'.7 b c c [             ",
"            -+U L m.j c.g I c P P ;+=+ +S.I.y.u.o.U.K.z.A.$+&.*.=.-.;.>.,.7 b c c b.            ",
"            >+x i m.j j g I c P P ,+'+)+!+~+I.y.u.o.U.K.z.A.$+&.{+]+^+/+>.7 c c c |             ",
"            f x H.i `.R D H e P P (+_+P V U S.I.:+<+[+U.K.z.A.$+U P d }+;.d b b c |+            ",
"            : e l `.L H.t H V P P 1+2+8 7 d  +S.3+c b o.U.4+[.5+d 7 d 6+-.d c b c |+            ",
"            : c s i *+H.u H V P P 7+8+f.8 7 =+ +9+0 a u.o.0+a 0 0 f.a 6+=.d c b c |+            ",
"            a+e *++ b+L r H V P P c+d+8 0 a 7 c a 8 8 y.u.e+9 8 9 f.8 f+*.d b c c |+            ",
"            Z.V h t.t L w z V 7 d g+h+8 8 9 a 7 9 f.f.I.y.i+f.9 9 9 a f+&.b e c d |+            ",
"            j+e h *+h L r x c d 7 k+l+a 8 a d a 8 8 8 m+n+6+0 9 9 9 P o+p+c e e P |+            ",
"            q+e *+m H.i p b d 0 d r+s+t+u+u+u+v+v.v.w+x+y+z+y+6+A+B+^+C+D+V x V x |+            ",
"            E+V *+*+H.m.J c d 8 0 F+G+H+g+c+7+1+(+,+;+=+ +S.I.y.u.o.I+J+K+x U N N L+            ",
"            a+e o *+H.R p U 0 8 7 d d 7 f.9 8 a 7 7 7 d d d b 7 a 7 b c e x U U x M+            ",
"            N+c h *+L R 4 6 0 0 7 7 c P 8 8 a 0 8 0 a 7 P V e d c b c e e V x x U O+            ",
"            y c o m L k 4 N d 0 a d P 7 8 a 7 7 d d 7 7 d 7 d d d d d c e V x N N P+            ",
"            Q+c w *+m c.t N e d d P d 7 7 7 d d d d d d d d P P P b c e V U N H O P+            ",
"            1 e l T h c.D 6 M 6 V P P P P b P b P P P c c e e U x x x x U O I v I R+            ",
"            1 x h h l j q 5 5 H M U V e V V e e c c e V V x 6 I z O O O M I v t D S+            ",
"            Y.V h h l `.J 4 H O N U e c V x e e e e e e e V V 6 O z I 5 v t r r e T+            ",
"            W b 4 h l h D J D M x V b e c V N U N M O M 6 N 6 6 6 O D D 4 w 4 D c R+            ",
"            U+d H p J J z t D H z M 6 O 6 6 z z M I M N O I g H I M H g t t v O 7 V+            ",
"            1 U 8 0 8 a 8 0 7 7 a a a 0 a a 0 0 a 7 7 7 a d P V c c d P b d 7 7 d |             ",
"              Y.F.Q+: f y a+( a+>+>+N+( a+a+a+a+a+( ( ( ( E+E+E+E+E+E+/ G./ N++.< Y.            ",
"                                                                                                ",
"                                                                                                ",
"                                                                                                "};
