<?xml version="1.0" encoding="UTF-8" standalone="no"?>
<svg
   xmlns:dc="http://purl.org/dc/elements/1.1/"
   xmlns:cc="http://creativecommons.org/ns#"
   xmlns:rdf="http://www.w3.org/1999/02/22-rdf-syntax-ns#"
   xmlns:svg="http://www.w3.org/2000/svg"
   xmlns="http://www.w3.org/2000/svg"
   xmlns:xlink="http://www.w3.org/1999/xlink"
   id="svg2235"
   version="1.1"
   viewBox="0 0 16.933333 16.933334"
   height="64"
   width="64">
  <metadata
     id="metadata13">
    <rdf:RDF>
      <cc:Work
         rdf:about="">
        <dc:format>image/svg+xml</dc:format>
        <dc:type
           rdf:resource="http://purl.org/dc/dcmitype/StillImage" />
        <dc:title></dc:title>
      </cc:Work>
    </rdf:RDF>
  </metadata>
  <defs
     id="defs2232">
    <linearGradient
       gradientUnits="userSpaceOnUse"
       y2="66.110077"
       x2="36.958832"
       y1="89.657997"
       x1="13.410914"
       id="linearGradient70771"
       xlink:href="#linearGradient135126" />
    <linearGradient
       id="linearGradient135126">
      <stop
         id="stop135122"
         offset="0"
         style="stop-color:#e93c17;stop-opacity:1" />
      <stop
         id="stop135124"
         offset="1"
         style="stop-color:#ca153e;stop-opacity:1" />
    </linearGradient>
    <linearGradient
       y2="89.657997"
       x2="13.410914"
       y1="66.110077"
       x1="36.958832"
       gradientTransform="translate(-4.9571544e-6)"
       gradientUnits="userSpaceOnUse"
       id="linearGradient89893"
       xlink:href="#linearGradient135126" />
    <linearGradient
       y2="89.363289"
       x2="-31.127453"
       y1="65.579994"
       x1="-7.3441615"
       gradientTransform="matrix(0.71198446,0,0,0.71198433,22.162262,-46.691925)"
       gradientUnits="userSpaceOnUse"
       id="linearGradient67977"
       xlink:href="#linearGradient135126" />
    <linearGradient
       y2="89.363289"
       x2="-31.127453"
       y1="65.579994"
       x1="-7.3441615"
       gradientTransform="matrix(0.71198445,0,0,0.71198435,22.162262,-46.691924)"
       gradientUnits="userSpaceOnUse"
       id="linearGradient67977-8"
       xlink:href="#linearGradient135126" />
  </defs>
  <g
     id="layer2">
    <rect
       ry="2.2960453"
       y="-4.2529297e-07"
       x="-4.2529297e-07"
       height="16.933334"
       width="16.933334"
       id="rect3332-9"
       style="display:inline;fill:black;fill-opacity:1;stroke-width:0.11670614;stroke-linecap:square;stroke-linejoin:round;stroke-dashoffset:30.23620033;paint-order:stroke fill markers" />
  </g>
  <g
     id="layer3">
    <path
       d="M 2.1170344,3.7499999e-7 C 0.9535663,3.7499999e-7 3.9999999e-7,0.95357467 3.9999999e-7,2.1170335 V 14.8163 C 3.9999999e-7,15.979759 0.9535663,16.933333 2.1170344,16.933333 H 14.8163 c 1.163459,0 2.117033,-0.953574 2.117033,-2.117033 V 2.1170335 C 16.933333,0.95357467 15.979759,3.7499999e-7 14.8163,3.7499999e-7 Z M 8.4670344,2.1166669 H 10.5837 v 3.1749999 h 2.116667 V 7.4083332 H 15.875 v 2.1166675 h -1.587133 -1.5875 V 11.641667 H 10.5837 v 3.175 H 8.4670344 V 10.583333 H 6.3503684 V 12.7 H 4.2337015 V 9.5250007 H 1.0583334 V 7.4083332 H 4.2337015 V 4.2333334 h 2.1166669 v 2.1166667 h 2.116666 z"
       style="color:black;display:inline;fill:url(#linearGradient67977-8);fill-opacity:1;stroke:none;stroke-width:5.99990988;stroke-dashoffset:30.23620033;paint-order:markers fill stroke"
       id="path3234-4" />
  </g>
</svg>
