/* XPM */
static const char *TenacityLogo_xpm[] = {
/* columns rows colors chars-per-pixel */
"64 64 59 1 ",
"  c black",
". c #B7203F",
"X c #DD391A",
"o c #E2341F",
"O c #E4351E",
"+ c #E6381B",
"@ c #E83A19",
"# c #CF1C37",
"$ c #C3173A",
"% c #C9173B",
"& c #CB173C",
"* c #CC173C",
"= c #CF1B38",
"- c #C9183C",
"; c #D21F34",
": c #D01C37",
"> c #CF252C",
", c #D32A27",
"< c #DF2F24",
"1 c #DC2C27",
"2 c #D7262D",
"3 c #D9272C",
"4 c #D12B28",
"5 c #D7292A",
"6 c #DB2B28",
"7 c #D9282B",
"8 c #DC2B28",
"9 c #CD3E23",
"0 c #C3302F",
"q c #DF3023",
"w c #C12E32",
"e c #D32132",
"r c #D52330",
"t c #C33130",
"y c #E13320",
"u c #E03023",
"i c #D3553D",
"p c #B72140",
"a c #BE3C57",
"s c #B85468",
"d c #CA484A",
"f c #C94A4C",
"g c #C15E5D",
"h c #C86856",
"j c #C15F62",
"k c #C55F74",
"l c #C16160",
"z c #CD6767",
"x c #CC6668",
"c c #CE6B6D",
"v c #CE6C6C",
"b c #D57360",
"n c #F4D6D6",
"m c #F6DAD5",
"M c #F7DBD5",
"N c #F2D5DB",
"B c #F5D9DA",
"V c #FEFAFA",
"C c white",
/* pixels */
"CCCCng0,781111111111quuuuuuuuuuuuoooooooooOOOOOOOO++++++X9hmCCCC",
"CCVz57777781111111111quuuuuuuuuuuuooooooooOOOOOOOO++++++++++bVCC",
"CVd77777777111111111111uuqquuuuuuuuoouuoooooOOOOO+++++++++++@iVC",
"Cx777777777111111111111111qquuuuuuuuoouuoooooOOOOO++O++++++++@bC",
"n57777777881111111111111qq1qquuuuuuuuuuuuoOOOOOOOO++OO+++++++++m",
"g377777777887111111111111111qquuuuuuuuuuuuoOOOoOOOOOOOO++++++++h",
"w3377777777777181111111111111qquuuuuuuuuuuuoOoooOOOO+OOO+++++++9",
">33377777777771111111111111111qquuuuuuuuuuuuoOoooOOOOOOO+++++++X",
"3333377777777771781111111111quuu        uooouoooooOOOOOOOO++++++",
"23333377777777777781111111111quu        uuoouuoooooOOOOOOO++++++",
"223333377777777777781111111111qu        uuuuuuooooooOOOO++++++++",
"2223333377777777777781111111111q        uuuuuuoooooooOOOO+++O+++",
"22223333377777777771781111111111        uuuuuooouoOOOOOOOOOOOO++",
"22222333337777777787771111111111        uuuuuuoouuooOOoOOOOOOO++",
"22222233333777777778777811111111        uuuuuuuuuuuoOOooOOOOOO++",
"22222223333377777777777781111111        uuuuuuuuuuuuoOoooOOOOO++",
"rr22222233333777        78111111        quuuuuuuuooouoooooOOOOOO",
"rr22222223333377        77811111        qquuuuuuuuoouuoooooOOOOO",
"rr22222222333337        77781111        1qquuuuuuuuuuuooooooOOOO",
"rrr2222222233333        77778111        11qquuuuuuuuuuoooooooOOO",
"rrrrrrr222223333        78717811                uuuuuooouoooooOO",
"rrrrrrrr22222333        77877781                uuuuuuouuuoooooO",
"rrrrrr2222222233        77777778                uuuuuuuoouuooooo",
"rrrrrrr222222223        77777777                uuuuuuuuouuuoooo",
"rrrrrrrr22222222                                quuuuuuuuuuooooo",
"errrrrrrr2222222                                qquuuuuuuuuooooo",
"eerrrrrrrr222222                                qqquuuuuuuuuoooo",
"eeerrrrrrrr22222                                qqqquuuuuuuuoouu",
"eeee                                                        uouu",
"eeee                                                        uuou",
";eee                                                        uuuu",
";;ee                                                        uuuu",
";;;e                                                        uuuu",
";;;;                                                        uuuu",
";;;;                                                        uuuu",
";;;;                                                        uuuu",
";;;;;;;eeeeerrrr                                1111111111uuuuuu",
";;;;;;;;eeeeerrr                                1111111111q1uuuu",
";;;;;;;;;e;eeerr                                111111111111uuuu",
";;;;;;;;;;eeeeer                                111111111111uuqq",
"=;;;;;;;;;;eeeee        22r22222                781111111111quuu",
"=;;;;;;;;;;;eeee        r2222222                7781111111111qu1",
"=;;;;;;;;;;;;eee        rr22r222                7718111111111111",
"==;;;#;;;;;;;;ee        rrr22r22                7771111111111111",
"===;=##;;;;;;;;e        rrrr2222        377777777881781111111111",
"===#=;;;;;;;;;;;        rrrrr222        337777777788778111111111",
"=====;;;;;;;;;;;        rrrrrrr2        333777777778777811111111",
"======;;;;;;;;;;        rrrrrrr2        333377777777777781111111",
"========;;;;;;;;;;;eeeeerrrrrrrr        333337777777777778111111",
"=======#;;;#;;;;;;;;eeeeerrrrrrr        233333777777777777811111",
"========#;;;;;;;;;;;;eeeeerrrrrr        223333377777777777711111",
"=========#;;##;;;;;;;;eeeeerrrrr        222333337777777777711111",
"==========#;;;;;;;;;;;;eeeeerrrr        222233333777777778811111",
"*==========#;;;;;;;;;;;;eeeeerrr        222223333377777777881111",
"&*============;;;;;;;;;;;e;;eerr        222222333337777777777778",
"&&============;;;;;;;;;;;;;;;eer        222222233333777777777777",
"$&&*==========#;;;;;;;;;;;;;eeeerrrrrrrr2rr222223333377777777774",
".&=&*==========#;;#;;;;;;;;;eeeeerrrrrrrrr222222233333777777777t",
"s**================##;;;;;;;;eeeeerrrrrrrr222222223333377777777l",
"N%**================;;;;;;;;;;eeeeerrrrrrrr22222222333337777777B",
"Ck&**=============#;;;#;;;;;;;;eeeeerrrrrrrr222222223333377777vC",
"CVa&**==*==========#;;;;;;;;;;;;e;eeerrrrrrrr2222222233333777fVC",
"CCVk-**=&*==========#;;;;;;;;;;;;eeeeerrrrrrrr22222222333335cVCC",
"CCCCNsp$&&*==========#;;;;;;;;;;;;eeeeerrrrrrrr222222223>wjBCCCC"
};
