/* XPM */
static const char *TenacityLogo48x48_xpm[] = {
/* columns rows colors chars-per-pixel */
"48 48 48 1 ",
"  c black",
". c #BF3433",
"X c #BB3236",
"o c #BC3236",
"O c #DE3819",
"+ c #E3341F",
"@ c #E4351E",
"# c #E5381B",
"$ c #CF1C37",
"% c #C3173A",
"& c #CC173C",
"* c #CF1B38",
"= c #D21F34",
"- c #CF252C",
"; c #D32A27",
": c #DC2C27",
"> c #D7262D",
", c #D9272C",
"< c #D8262D",
"1 c #D12B28",
"2 c #DB2B28",
"3 c #D9282B",
"4 c #DC2B28",
"5 c #DF3023",
"6 c #D32033",
"7 c #D52330",
"8 c #C33437",
"9 c #C53536",
"0 c #C43738",
"q c #E23320",
"w c #E03023",
"e c #C74027",
"r c #C84128",
"t c #D04429",
"y c #B22643",
"u c #B82745",
"i c #D2897B",
"p c #D38A7C",
"a c #C77C8B",
"s c #C87D8C",
"d c #CC8183",
"f c #CE8484",
"g c #F6E3E7",
"h c #F7E5E5",
"j c #F9E7E3",
"k c #FEF9F9",
"l c #FEFBFB",
"z c white",
/* pixels */
"zzkd.;34::::::::::5wwwwwww+++++@@@@@@#####Oepkzz",
"zh9333334:::::::5:wwwwwwww++++++@@@@@@#######tjz",
"k83333333::::::::5ww5wwwwww+ww+++@@@@@@#######tk",
"d333333333::::::::5w:5wwwwwwwww+++@@@@@@#######i",
"o,33333333:::::::::5w55wwwwwwwww+++@@@@@@######r",
"-,,3333333:::::::::::::wwwwwww++w+++@@@@@@#####O",
",,,33333333334:::::::5ww      w+ww+++@@@@@@#####",
">,,,,333333333::::::::5w      wwwww+++@@@@@@####",
">>,,,,333333333:::::::::      www++++++@@@@@@###",
">>>,,,,3333333334:::::::      wwww++++++@@@@@@##",
">>>>,,,,3333333334::::::      wwwwwwww+++@@@@#@#",
">>>>>,,,,333333333::::::      wwwwww++w+++@@@@@@",
">>7>>>,,,,33      34::::      5wwwwww++w+++@@@@@",
"7>77>>>,,,,3      334:::      :5wwwwww+ww+++@@@@",
"77>7>>>>,,,,      3334::      ::5wwwwwwwww+++@@@",
"777>>>>>>,,,      33334:            wwwwwww+++@@",
"7777>>>>>>,,      333334            wwwwwwww+++@",
"77777>>>>>>,      333333            wwwwwwwww+++",
"777777>>>>>>                        5wwwwwww++++",
"6777777>>>>>                        :5wwwwwwwww+",
"66777777>>>>                        ::5wwwwwww++",
"666                                          www",
"666                                          www",
"=66                                          www",
"==6                                          www",
"===                                          www",
"===                                          www",
"=====6666777                        ::::::55:5ww",
"======666677                        ::::::::::5w",
"=======66667                        4::::::::::w",
"=$======6666      >>>>>>            34::::::::::",
"**=======666      7>>>>>            33::::::::::",
"*$========66      77>>>>            3::::::::::5",
"*$*$========      777>>>      ,3333333::::::::::",
"***$========      7777>>      ,,333333333:::::::",
"****$=======      77777>      ,,,3333333334:::::",
"******========6666777777      ,,,,3333333334::::",
"******$========666677777      >,,,,333333333::::",
"*******$=$======66667777      >>,,,,3333333334::",
"*******$**=======6666777      >>>,,,,3333333334:",
"&*********========666677      >>>>,,,,3333333334",
"&&********$========66667      >>>>>,,,,333333333",
"%&********$$*$======6666777777>>>>>>,,,,33333341",
"y&&&*******$**$======6666777777>>>>>>,,,3333333.",
"s&&*&********$========6666777777>>>>>>,,,,33333f",
"ku&&&&*******$$========6666777777>>>>>>,,,,3330k",
"zgu&&&********$$========6666777777>>>>>>,,,,30hz",
"zzkay%*********$$========66667777777>>>>>,-Xfkzz"
};
