<?xml version="1.0" encoding="UTF-8" standalone="no"?>
<!-- Created with Inkscape (http://www.inkscape.org/) -->

<svg
   width="64"
   height="64"
   viewBox="0 0 16.933333 16.933334"
   version="1.1"
   id="svg2235"
   xmlns:xlink="http://www.w3.org/1999/xlink"
   xmlns="http://www.w3.org/2000/svg"
   xmlns:svg="http://www.w3.org/2000/svg">
  <defs
     id="defs2232">
    <linearGradient
       xlink:href="#linearGradient135126"
       id="linearGradient70771"
       x1="13.410914"
       y1="89.657997"
       x2="36.958832"
       y2="66.110077"
       gradientUnits="userSpaceOnUse" />
    <linearGradient
       id="linearGradient135126">
      <stop
         style="stop-color:#e93c17;stop-opacity:1"
         offset="0"
         id="stop135122" />
      <stop
         style="stop-color:#ca153e;stop-opacity:1"
         offset="1"
         id="stop135124" />
    </linearGradient>
    <linearGradient
       xlink:href="#linearGradient135126"
       id="linearGradient89893"
       gradientUnits="userSpaceOnUse"
       gradientTransform="translate(-4.9571544e-6)"
       x1="36.958832"
       y1="66.110077"
       x2="13.410914"
       y2="89.657997" />
  </defs>
  <rect
     style="fill:#ffffff;stroke:none;stroke-width:0.132292;paint-order:markers fill stroke"
     id="rect850"
     width="15.291777"
     height="14.933552"
     x="0.80888873"
     y="0.9899658" />
  <g
     id="g5951"
     transform="matrix(0.71910108,0,0,0.71910108,-9.6438049,-47.539832)"
     style="fill:url(#linearGradient70771);fill-opacity:1">
    <path
       id="rect1657-4-6-1-4-10-2-6"
       style="fill:url(#linearGradient89893);fill-opacity:1;stroke-width:0.0636518;paint-order:markers fill stroke"
       d="m 16.354404,66.110083 c -1.617931,0 -2.943487,1.325543 -2.943487,2.943487 v 17.660939 c 0,0.677907 0.234349,1.303066 0.623769,1.80231 0.540007,0.692304 1.379688,1.141182 2.319718,1.141182 h 17.66094 c 1.617937,0 2.943491,-1.325549 2.943491,-2.943492 v -17.66094 c 0,-0.651264 -0.215491,-1.252715 -0.577776,-1.741948 v -0.0029 c -0.0029,-0.0039 -0.0055,-0.0078 -0.0089,-0.01168 -0.0095,-0.0128 -0.01891,-0.02503 -0.02893,-0.03726 -0.0067,-0.0083 -0.01335,-0.01725 -0.02003,-0.02559 -0.02002,-0.02559 -0.04227,-0.05006 -0.06325,-0.07476 -0.541343,-0.639745 -1.347338,-1.049194 -2.244986,-1.049194 z m 0,1.471743 h 17.66094 c 0.828062,0 1.471743,0.643682 1.471743,1.471744 v 7.358726 H 31.071852 V 73.468805 H 28.128366 V 69.05357 h -2.943493 v 5.886983 h -2.943491 v -2.943491 h -2.943487 v 4.415234 H 14.88266 V 69.05357 c 0,-0.828062 0.643682,-1.471744 1.471744,-1.471744 z M 14.88266,79.355787 h 4.415235 v 4.415235 h 2.943487 V 80.82753 h 2.943491 v 5.886979 h 2.943493 v -4.415237 h 2.943486 v -2.943486 h 2.207617 2.207618 v 7.358722 c 0,0.828063 -0.643681,1.471749 -1.471743,1.471749 h -17.66094 c -0.828062,0 -1.471744,-0.643688 -1.471744,-1.471749 z" />
  </g>
</svg>
