/* XPM */
static const char * const Unchecked_xpm[] = {
"15 15 54 1",
" 	c #FFFFFF",
".	c #8E8F8F",
"+	c #F4F4F4",
"@	c #F0F0F0",
"#	c #AEB3BA",
"$	c #AEB3B9",
"%	c #AFB4BA",
"&	c #ADB4BB",
"*	c #AFB5BC",
"=	c #F3F3F4",
"-	c #ADB3BA",
";	c #CBCFD5",
">	c #D0D3D8",
",	c #D5D8DC",
"'	c #DBDDDF",
")	c #B0B6BD",
"!	c #CDD1D6",
"~	c #D2D5DA",
"{	c #D8DBDE",
"]	c #DDDFE1",
"^	c #E2E3E4",
"/	c #F2F2F2",
"(	c #CDD1D7",
"_	c #D0D4D9",
":	c #D4D7DB",
"<	c #E1E2E3",
"[	c #E5E6E6",
"}	c #E8E8E8",
"|	c #F3F3F3",
"1	c #DADCDF",
"2	c #E0E1E3",
"3	c #ECECEC",
"4	c #EDEDED",
"5	c #B2B8BF",
"6	c #AEB4BC",
"7	c #E4E5E5",
"8	c #EAEAEA",
"9	c #EFEFEF",
"0	c #B1B7BF",
"a	c #AEB5BC",
"b	c #E3E4E5",
"c	c #E9E9E9",
"d	c #F5F5F5",
"e	c #B2B9C0",
"f	c #ACB3BB",
"g	c #EFEFF0",
"h	c #F6F6F6",
"i	c #B1B7BE",
"j	c #B0B6BE",
"k	c #AFB6BD",
"l	c #B2B8C0",
"m	c #B3B9C0",
"n	c #B4BAC1",
"o	c #B3B9C1",
"               ",
" ............. ",
" .+++++++++++. ",
" .@#$$$$$%&*+. ",
" .=-;;;;>,')+. ",
" .+-;;!~{]^)+. ",
" ./-(_:'<[})+. ",
" .|&,12}3445+. ",
" .+6]789///0+. ",
" .|abc4/+d+e+. ",
" .+fc4@ghhh5+. ",
" .+*ijklmnno+. ",
" .++++/++++++. ",
" ............. ",
"               "};
