/* XPM */
static const char * const TimeShiftAlpha[] = {
"27 27 2 1",
" 	c #000000",
".	c #FFFFFF",
"                           ",
"                           ",
"                           ",
"                           ",
"                           ",
"                           ",
"                           ",
"                           ",
"                           ",
"                           ",
"        ..       ..        ",
"       ...       ...       ",
"      ...............      ",
"     .................     ",
"      ...............      ",
"       ...       ...       ",
"        ..       ..        ",
"                           ",
"                           ",
"                           ",
"                           ",
"                           ",
"                           ",
"                           ",
"                           ",
"                           ",
"                           "};
