/* XPM */
static const char * const audacity16_xpm[] = {
"16 16 32 1",
" 	c None",
".	c #DA2A28",
"+	c #DB2B28",
"@	c #DC2C27",
"#	c #DD2D26",
"$	c #DE2F24",
"%	c #DF3023",
"&	c #E03122",
"*	c #E13221",
"=	c #E23320",
"-	c #E3351E",
";	c #E4361D",
">	c #E5371C",
",	c #E6381B",
"'	c #E73A19",
")	c #D9272C",
"!	c #E83A19",
"~	c #D8262D",
"{	c #D7252E",
"]	c #D6242F",
"^	c #DA292B",
"/	c #DA2A29",
"(	c #D52231",
"_	c #D42132",
":	c #D32033",
"<	c #D21F34",
"[	c #D11E35",
"}	c #D01C37",
"|	c #CF1B38",
"1	c #CE1A39",
"2	c #CD193A",
"3	c #CC173C",
" .+@#$%&*=-;>,' ",
")              !",
"~       %&     ,",
"{       $%     >",
"]   ^/  #$     ;",
"(   )^  @#$%   -",
"_   ~)^/+@#$   =",
":_(]{~)^/+@#$%&*",
"<:_(]{~)^/+@#$%&",
"[   (]{~)^/+   %",
"}   _(  ~)^/   $",
"|   :_  {~     #",
"1       ]{     @",
"2       (]     +",
"3              /",
" 321|}[<:_(]{~) "};
