/* XPM */
static const char * const audacity16_xpm[] = {
"16 16 41 1",
" 	c None",
".	c #DA2C2B",
"+	c #DB2B28",
"@	c #DC2C27",
"#	c #DD2D26",
"$	c #DE2F24",
"%	c #DF3023",
"&	c #E03122",
"*	c #E13221",
"=	c #E23320",
"-	c #E3351E",
";	c #E4361D",
">	c #E5371C",
",	c #E6381B",
"'	c #E83C1C",
")	c #DA2C30",
"!	c #F7CECF",
"~	c #FFFFFF",
"{	c #F9D1CA",
"]	c #E83F1F",
"^	c #D8262D",
"/	c #D7252E",
"(	c #D6242F",
"_	c #DA292B",
":	c #DA2A29",
"<	c #D52231",
"[	c #D9272C",
"}	c #D42132",
"|	c #D32033",
"1	c #D21F34",
"2	c #D11E35",
"3	c #D01C37",
"4	c #CF1B38",
"5	c #CE1A39",
"6	c #CD193A",
"7	c #CD1C41",
"8	c #F3CAD1",
"9	c #F6CDCE",
"0	c #DB302F",
"a	c #CE1F43",
"b	c #DA2E32",
" .+@#$%&*=-;>,' ",
")!~~~~~~~~~~~~{]",
"^~~~~~~~%&~~~~~,",
"/~~~~~~~$%~~~~~>",
"(~~~_:~~#$~~~~~;",
"<~~~[_~~@#$%~~~-",
"}~~~^[_:+@#$~~~=",
"|}<(/^[_:+@#$%&*",
"1|}<(/^[_:+@#$%&",
"2~~~<(/^[_:+~~~%",
"3~~~}<~~^[_:~~~$",
"4~~~|}~~/^~~~~~#",
"5~~~~~~~(/~~~~~@",
"6~~~~~~~<(~~~~~+",
"78~~~~~~~~~~~~90",
" a654321|}<(/^b "};
